PathFileType	4	(X/Y/Z)	./resultDataOpenSim/trcMotMarkerGrf/sub09/qtm-14-04.trc
DataRate	CameraRate	NumFrames	NumMarkers	Units	OrigDataRate	OrigDataStartFrame	OrigNumFrames
250.000000	250.000000	10	24	m	250.000000	240	479
Frame#	Time	L.Toe.Tip			R.Toe.Tip			L.Ankle.Lat			R.Ankle.Lat			L.Ankle.Med			R.Ankle.Med			L.Heel			R.Heel			L.Knee.Lat			R.Knee.Lat			L.Knee.Med			R.Knee.Med			L.Thigh.Upper			R.Thigh.Upper			L.ASIS			R.ASIS			V.Sacral			L.Acromium			R.Acromium			C7			L.Elbow			R.Elbow			L.Wrist.Lat			R.Wrist.Lat
		X1	Y1	Z1	X2	Y2	Z2	X3	Y3	Z3	X4	Y4	Z4	X5	Y5	Z5	X6	Y6	Z6	X7	Y7	Z7	X8	Y8	Z8	X9	Y9	Z9	X10	Y10	Z10	X11	Y11	Z11	X12	Y12	Z12	X13	Y13	Z13	X14	Y14	Z14	X15	Y15	Z15	X16	Y16	Z16	X17	Y17	Z17	X18	Y18	Z18	X19	Y19	Z19	X20	Y20	Z20	X21	Y21	Z21	X22	Y22	Z22	X23	Y23	Z23	X24	Y24	Z24

240	0.956	0.11958663	-0.034224984	0.0022905615	0.30919398	0.11616074	0.11584527	-0.017183161	0.019403774	-0.060864477	0.17212982	0.16526605	0.13667405	-0.0046290308	0.039506548	0.035818802	0.19924524	0.19182086	0.042940953	-0.096006175	-0.0039177976	-0.022735661	0.10222369	0.15487937	0.082887517	0.10281255	0.41948701	-0.10662147	0.39068686	0.54437778	0.17233051	0.091512534	0.42180291	0.018231096	0.39314835	0.53672595	0.046963911	0.1299236	0.84387172	-0.1548351	0.13182461	0.85589675	0.21635973	0.22270688	0.92404565	-0.093207564	0.20855766	0.93744338	0.14545194	0.051631186	0.99382297	0.01320899	0.26849759	1.3714872	-0.13808708	0.19689033	1.396938	0.18406284	0.16561825	1.4367464	0.006833741	0.13884721	1.0229071	-0.2118411	0.023188886	1.0755282	0.25154022	0.32761847	0.83068141	-0.22463934	0.12917964	0.83224418	0.31696208
241	0.96	0.11966473	-0.034237198	0.0022533581	0.32976937	0.11587655	0.1146567	-0.017096629	0.020367457	-0.060630649	0.19119731	0.16053956	0.13538099	-0.0038484957	0.040320923	0.035677003	0.2177564	0.18810251	0.04167648	-0.095850212	-0.0025388126	-0.022466555	0.12236863	0.14810956	0.081110075	0.10360427	0.42023175	-0.10685172	0.39951639	0.54683411	0.17191444	0.09330584	0.422476	0.018130698	0.40110774	0.53889029	0.046720584	0.13437242	0.84420259	-0.15491653	0.13874284	0.85654126	0.21650655	0.22827737	0.92405792	-0.09369966	0.21518796	0.93765947	0.14497505	0.058475289	0.99445107	0.013646576	0.27488693	1.3716132	-0.13816428	0.20436727	1.3970438	0.18413944	0.1724924	1.4370115	0.007035904	0.1457179	1.0224613	-0.2117737	0.029631227	1.0764445	0.25148428	0.33698917	0.83238249	-0.22392196	0.13390606	0.83256475	0.31776258
242	0.964	0.11974711	-0.034241064	0.0022101821	0.35038264	0.11572387	0.11348031	-0.01689992	0.021270544	-0.06051995	0.21032161	0.15598694	0.13406219	-0.0029996438	0.041101692	0.035534596	0.23626506	0.18449953	0.040417261	-0.095678552	-0.0011791985	-0.022120662	0.14233248	0.14154295	0.079516711	0.10438835	0.42097235	-0.10704549	0.40837892	0.54926227	0.17164587	0.095193835	0.42310215	0.018283308	0.40894958	0.54082547	0.046537726	0.13872346	0.84447363	-0.15507546	0.14564006	0.85712173	0.21665496	0.23385537	0.92399825	-0.094136184	0.22182612	0.93781298	0.1445244	0.065560703	0.99501642	0.014078133	0.28126354	1.3716893	-0.13825729	0.21184594	1.3971034	0.18420761	0.17936336	1.4372162	0.0072272385	0.15256978	1.0219513	-0.21167472	0.03613339	1.0772892	0.25145188	0.34631724	0.83405592	-0.2231722	0.13871964	0.83282736	0.31855633
243	0.968	0.11988424	-0.03421413	0.0020978456	0.37100028	0.115694	0.11231072	-0.016650811	0.022138087	-0.060557667	0.22960323	0.15154563	0.13270563	-0.0021385663	0.041874182	0.03543367	0.25478861	0.18100573	0.039196261	-0.095442406	0.00013826173	-0.021756177	0.16210358	0.13519177	0.078197716	0.10512449	0.42171193	-0.10720874	0.4171207	0.55159152	0.17142565	0.097026152	0.42364454	0.018671809	0.41669299	0.54252814	0.046397471	0.1431861	0.84473865	-0.15515199	0.15249456	0.85763059	0.21680025	0.23945041	0.92387293	-0.094515903	0.22846859	0.93790784	0.14410309	0.072546747	0.99547776	0.014466177	0.287627	1.3717147	-0.13836871	0.21929632	1.3971171	0.18427064	0.18622887	1.4373575	0.0074063113	0.1594733	1.0213832	-0.21161538	0.042739514	1.0780632	0.25154977	0.3555997	0.83569858	-0.22239811	0.14362485	0.83302265	0.31933656
244	0.972	0.1200771	-0.034164286	0.0019224843	0.3915768	0.11576209	0.11115735	-0.016402482	0.022992075	-0.060712154	0.24905277	0.14719369	0.13131159	-0.0013498396	0.042653811	0.035432207	0.2733855	0.17760601	0.038006378	-0.095141824	0.0014187149	-0.02137888	0.18186466	0.12902488	0.077029814	0.10582639	0.42244848	-0.10735433	0.42561843	0.55371324	0.17120515	0.098626769	0.4241129	0.019094649	0.42435582	0.54399904	0.046282358	0.14793434	0.84503091	-0.15500151	0.15930273	0.85806354	0.21694628	0.24509097	0.92368189	-0.094864139	0.2351141	0.93794244	0.14371364	0.079223216	0.99582548	0.014806558	0.29398745	1.3716871	-0.13849154	0.22672001	1.3970765	0.18433414	0.19309026	1.4374349	0.0075790752	0.16643415	1.020763	-0.2115914	0.049504289	1.0787628	0.25184221	0.36483458	0.83730726	-0.2216011	0.14860524	0.83313954	0.32009263
245	0.976	0.12027285	-0.034121041	0.0017540446	0.41207199	0.11589594	0.11003028	-0.016188447	0.023849041	-0.060845634	0.26860367	0.14295336	0.1299026	-0.00064706941	0.043442479	0.035543062	0.29207921	0.17430055	0.036831247	-0.094813627	0.0026843113	-0.020958422	0.20182502	0.12300938	0.075805043	0.10653131	0.42317959	-0.10749058	0.433817	0.55552252	0.1709911	0.10010724	0.42459547	0.019257605	0.43197487	0.545242	0.046183286	0.15292762	0.84532882	-0.15465014	0.16607302	0.85842232	0.21709898	0.25079225	0.92342185	-0.095212984	0.24176456	0.93791222	0.14335997	0.085634698	0.99606741	0.015115858	0.30035768	1.3716034	-0.13861357	0.2341414	1.3969721	0.18439762	0.19995173	1.4374421	0.0077574205	0.17342025	1.0200962	-0.21157592	0.056438956	1.0793769	0.25230307	0.37401904	0.83888103	-0.22077758	0.15361761	0.83316844	0.32081643
246	0.98	0.1204305	-0.03410176	0.0016402896	0.43246814	0.11607216	0.1089275	-0.016029545	0.024723029	-0.060789375	0.28816548	0.13885592	0.12851555	1.4550354e-05	0.044240018	0.035743924	0.31084723	0.1711056	0.03566591	-0.094486116	0.003950952	-0.020466648	0.22204859	0.11714885	0.074426586	0.10727293	0.42390479	-0.10762219	0.44171719	0.55696932	0.17079918	0.10173981	0.42519489	0.019032527	0.43960627	0.54626116	0.046085118	0.15798693	0.8455843	-0.15423781	0.17280569	0.85870464	0.2172604	0.25653733	0.92309226	-0.095567029	0.24842096	0.93781513	0.14304459	0.09193428	0.99620967	0.015407323	0.30674056	1.3714631	-0.13872812	0.24157743	1.3967998	0.18445734	0.20681019	1.4373634	0.007940577	0.18040364	1.0193901	-0.21155275	0.063471131	1.0798911	0.25281725	0.3831513	0.84042163	-0.21992691	0.15860637	0.83310135	0.3215032
247	0.984	0.12054921	-0.034101759	0.0015761955	0.45276633	0.11627635	0.10784053	-0.015925383	0.025617891	-0.06048911	0.30768538	0.13492243	0.12718056	0.00067756286	0.045048192	0.036016026	0.32967038	0.1680324	0.03450308	-0.094165165	0.0052282398	-0.019882856	0.24246252	0.1114774	0.07293649	0.10805135	0.42462853	-0.10774947	0.44935276	0.55808445	0.17062731	0.10357379	0.42591968	0.018565338	0.44729431	0.5470612	0.045956675	0.16298731	0.84576416	-0.15387418	0.17949787	0.85890658	0.21743637	0.26230156	0.9226949	-0.095900892	0.25507975	0.93764998	0.14276665	0.098225777	0.99625587	0.015686086	0.3131324	1.3712696	-0.13883656	0.24902661	1.3965615	0.18451268	0.21365986	1.4371892	0.0081163732	0.18737509	1.0186522	-0.21151879	0.070502933	1.0802989	0.25325895	0.39223246	0.84192943	-0.21905259	0.163542	0.83293475	0.32214816
248	0.988	0.12064228	-0.034108987	0.0015397253	0.47296622	0.1164952	0.10677058	-0.015828207	0.026510751	-0.060027181	0.32716897	0.13117699	0.12591291	0.0013656385	0.045869693	0.036351511	0.34855678	0.16507781	0.033327417	-0.093844922	0.0065263305	-0.019193579	0.26297346	0.10603292	0.071403843	0.10881129	0.42536068	-0.10786563	0.45677787	0.55895047	0.17047011	0.10544644	0.42668527	0.018074955	0.45502644	0.54765149	0.045785803	0.16793756	0.84586046	-0.15360443	0.18615096	0.8590283	0.21763346	0.2680949	0.92223216	-0.096193963	0.26173303	0.93741095	0.14252278	0.1045372	0.99621121	0.015956136	0.31952971	1.3710275	-0.13894401	0.25647665	1.3962589	0.18456217	0.22050658	1.436934	0.0082841839	0.19433402	1.0178851	-0.21147948	0.077497405	1.0806106	0.25360037	0.40126616	0.84340081	-0.21815901	0.16846002	0.83267726	0.32274772
249	0.992	0.12071907	-0.034116035	0.0015177726	0.49305833	0.11671833	0.10573116	-0.015628408	0.027341786	-0.059547841	0.34664622	0.12764648	0.12471445	0.002090746	0.046708963	0.036741527	0.36751163	0.16223894	0.032134623	-0.093519182	0.007850826	-0.018396271	0.2835252	0.10084705	0.069861898	0.10948311	0.42610557	-0.10796622	0.46405142	0.55963669	0.17033282	0.10732762	0.42740739	0.017623062	0.4627076	0.54804867	0.045622143	0.17293922	0.8458801	-0.15345644	0.19276006	0.85906528	0.21784613	0.27396952	0.92170969	-0.096456929	0.26837495	0.93709007	0.14230873	0.11086218	0.99608563	0.016224287	0.32592752	1.3707384	-0.13905455	0.26391489	1.39589	0.18460316	0.22735921	1.4366194	0.0084546257	0.20128089	1.0170866	-0.21143755	0.084462984	1.0808433	0.25391915	0.41025331	0.84483308	-0.21725203	0.17345628	0.83235084	0.32330754
